<?xml version="1.0" encoding="UTF-8" ?>
<!DOCTYPE svg PUBLIC "-//W3C//DTD SVG 1.1//EN" "http://www.w3.org/Graphics/SVG/1.1/DTD/svg11.dtd">
<svg width="1280pt" height="640pt" viewBox="0 0 1280 640" version="1.1" xmlns="http://www.w3.org/2000/svg">
<path fill="#ff0000" d=" M 0.00 0.00 L 320.00 0.00 C 320.00 213.33 320.00 426.67 320.00 640.00 L 0.00 640.00 L 0.00 0.00 Z" />
<path fill="#ffffff" d=" M 320.00 0.00 L 960.00 0.00 C 960.00 213.33 960.00 426.67 960.00 640.00 L 320.00 640.00 C 320.00 426.67 320.00 213.33 320.00 0.00 Z" />
<path fill="#ff0000" d=" M 960.00 0.00 L 1280.00 0.00 L 1280.00 640.00 L 960.00 640.00 C 960.00 426.67 960.00 213.33 960.00 0.00 Z" />
<path fill="#ff0000" d=" M 638.48 68.50 C 642.32 65.05 646.21 60.46 652.00 61.03 C 658.63 61.26 666.69 58.97 672.34 63.60 C 676.73 67.13 681.22 70.99 683.87 76.03 C 686.07 83.90 686.95 92.60 684.34 100.48 C 680.58 106.28 674.98 110.64 669.39 114.56 C 667.11 161.17 668.59 207.86 666.73 254.49 C 661.19 255.35 655.66 256.34 650.12 257.21 C 649.42 209.84 647.32 162.51 646.87 115.14 C 639.27 108.60 629.58 101.19 630.05 89.99 C 628.26 81.73 633.21 74.30 638.48 68.50 Z" />
<path fill="#ff0000" d=" M 621.00 172.15 C 628.88 172.26 636.38 169.75 643.94 167.84 C 643.95 175.83 643.99 183.82 644.00 191.81 C 636.52 191.55 627.92 190.11 622.11 196.11 C 608.83 209.41 598.54 226.57 581.19 235.15 C 573.69 238.12 565.70 239.64 557.86 241.45 C 559.53 226.25 561.74 210.98 566.63 196.44 C 570.19 189.12 576.41 183.17 583.77 179.72 C 595.36 174.28 608.33 172.66 621.00 172.15 Z" />
<path fill="#ff0000" d=" M 673.03 167.58 C 680.93 169.18 689.15 170.16 696.58 173.49 C 712.70 181.59 725.91 196.00 731.48 213.26 C 732.49 221.89 732.63 230.74 731.25 239.33 C 728.54 247.00 724.49 254.18 720.02 260.95 C 710.73 274.35 695.89 282.58 680.66 287.52 C 670.99 292.09 659.98 289.88 649.94 292.85 C 640.03 296.18 629.35 298.28 620.93 304.86 C 613.48 309.16 608.11 316.52 605.79 324.72 C 603.22 334.02 607.60 344.22 615.10 349.92 C 624.47 356.69 635.92 359.40 646.94 362.20 C 646.96 370.58 646.96 378.96 646.94 387.34 C 634.59 385.30 622.85 380.94 611.21 376.53 C 599.94 371.96 589.34 364.53 583.61 353.52 C 575.08 332.30 578.04 305.24 594.70 288.71 C 608.47 273.54 629.02 266.99 648.61 263.38 C 665.08 259.12 683.23 256.29 695.89 243.89 C 707.75 231.27 705.54 207.74 690.18 198.81 C 685.17 195.44 678.69 196.02 673.03 194.71 C 673.02 185.66 673.02 176.62 673.03 167.58 Z" />
<path fill="#ffffff" d=" M 582.98 189.88 C 584.79 190.03 588.41 190.32 590.22 190.47 C 589.55 193.62 589.25 196.91 587.80 199.84 C 584.76 203.70 579.57 203.71 575.20 204.52 C 575.44 198.56 579.50 194.23 582.98 189.88 Z" />
<path fill="#ff0000" d=" M 559.44 255.49 C 562.72 251.09 563.88 245.09 568.77 241.98 C 565.58 251.78 563.49 261.88 563.30 272.25 C 562.45 268.62 561.68 265.00 560.91 261.36 C 557.59 262.65 554.22 263.83 550.91 265.06 C 553.90 262.01 556.85 258.90 559.44 255.49 Z" />
<path fill="#ff0000" d=" M 651.23 297.61 C 656.07 296.82 660.89 295.87 665.72 294.95 C 664.70 311.94 665.24 328.99 664.23 345.99 C 663.17 372.51 665.34 399.14 662.88 425.61 C 659.21 426.27 655.64 427.16 652.05 428.08 C 651.80 402.76 652.39 377.43 651.66 352.12 C 650.68 333.97 650.85 315.78 651.23 297.61 Z" />
<path fill="#ff0000" d=" M 669.09 368.92 C 684.68 375.64 695.38 390.84 698.96 407.12 C 701.03 416.25 700.11 427.14 692.66 433.68 C 675.54 450.44 649.12 448.61 629.97 461.83 C 629.95 463.72 629.91 467.49 629.88 469.38 C 636.06 472.71 642.90 474.02 649.85 474.56 C 650.24 480.66 650.71 486.78 651.12 492.90 C 637.87 490.22 622.15 489.31 612.69 478.38 C 607.27 470.20 607.78 458.42 613.56 450.55 C 620.78 442.22 631.59 439.45 641.40 435.54 C 653.28 431.68 669.01 430.88 675.95 418.88 C 675.97 416.41 675.99 411.48 676.00 409.01 C 676.15 401.67 668.66 397.20 668.45 389.93 C 667.59 382.92 668.67 375.90 669.09 368.92 Z" />
<path fill="#ff0000" d=" M 652.99 456.14 C 656.16 454.93 659.35 453.76 662.57 452.68 C 661.71 492.16 660.12 531.63 659.95 571.12 C 658.76 570.93 657.57 570.74 656.40 570.56 C 654.59 532.44 654.61 494.27 652.99 456.14 Z" />
<path fill="#ff0000" d=" M 666.35 479.20 C 677.65 487.25 682.69 501.23 685.11 514.38 C 679.61 507.30 674.11 500.02 666.31 495.30 C 666.26 489.93 666.27 484.56 666.35 479.20 Z" />
</svg>
